<mxfile host="app.diagrams.net" modified="2022-06-24T09:38:03.856Z" agent="5.0 (Macintosh; Intel Mac OS X 10_15_7) AppleWebKit/537.36 (KHTML, like Gecko) Chrome/102.0.0.0 Safari/537.36" etag="sBigNFRP7C_KY1AkAGBu" version="19.0.0" type="github">
  <diagram id="HwAW7M-dxqKqn_WIGnJu" name="Page-1">
    <mxGraphModel dx="1234" dy="714" grid="1" gridSize="10" guides="1" tooltips="1" connect="1" arrows="1" fold="1" page="1" pageScale="1" pageWidth="827" pageHeight="1169" math="0" shadow="0">
      <root>
        <mxCell id="0" />
        <mxCell id="1" parent="0" />
        <mxCell id="FJEBCn0wj6pOSMf_bTM--12" value="" style="rounded=1;whiteSpace=wrap;html=1;fillColor=#f5f5f5;fontColor=#333333;strokeColor=#666666;" vertex="1" parent="1">
          <mxGeometry x="60" y="70" width="520" height="320" as="geometry" />
        </mxCell>
        <mxCell id="FJEBCn0wj6pOSMf_bTM--1" value="" style="rounded=0;whiteSpace=wrap;html=1;" vertex="1" parent="1">
          <mxGeometry x="280" y="120" width="270" height="250" as="geometry" />
        </mxCell>
        <mxCell id="FJEBCn0wj6pOSMf_bTM--2" value="Preboot Autoscaler" style="text;html=1;strokeColor=none;fillColor=none;align=center;verticalAlign=middle;whiteSpace=wrap;rounded=0;fontStyle=1" vertex="1" parent="1">
          <mxGeometry x="280" y="120" width="100" height="30" as="geometry" />
        </mxCell>
        <mxCell id="FJEBCn0wj6pOSMf_bTM--3" value="" style="rounded=0;whiteSpace=wrap;html=1;fillColor=#dae8fc;strokeColor=#6c8ebf;" vertex="1" parent="1">
          <mxGeometry x="430" y="120" width="120" height="70" as="geometry" />
        </mxCell>
        <mxCell id="FJEBCn0wj6pOSMf_bTM--4" value="Env vars" style="text;html=1;strokeColor=none;fillColor=none;align=center;verticalAlign=middle;whiteSpace=wrap;rounded=0;" vertex="1" parent="1">
          <mxGeometry x="430" y="120" width="50" height="30" as="geometry" />
        </mxCell>
        <mxCell id="FJEBCn0wj6pOSMf_bTM--6" value="Forecast based QROT" style="rounded=0;whiteSpace=wrap;html=1;fillColor=#e1d5e7;strokeColor=#9673a6;" vertex="1" parent="1">
          <mxGeometry x="330" y="240" width="120" height="60" as="geometry" />
        </mxCell>
        <mxCell id="FJEBCn0wj6pOSMf_bTM--7" value="" style="rounded=0;whiteSpace=wrap;html=1;" vertex="1" parent="1">
          <mxGeometry x="110" y="120" width="120" height="250" as="geometry" />
        </mxCell>
        <mxCell id="FJEBCn0wj6pOSMf_bTM--8" value="Gitops config" style="text;html=1;strokeColor=none;fillColor=none;align=center;verticalAlign=middle;whiteSpace=wrap;rounded=0;fontStyle=1" vertex="1" parent="1">
          <mxGeometry x="110" y="120" width="60" height="30" as="geometry" />
        </mxCell>
        <mxCell id="FJEBCn0wj6pOSMf_bTM--10" value="Desired preboot count per pool" style="rounded=0;whiteSpace=wrap;html=1;fillColor=#d5e8d4;strokeColor=#82b366;" vertex="1" parent="1">
          <mxGeometry x="330" y="350" width="120" height="30" as="geometry" />
        </mxCell>
        <mxCell id="FJEBCn0wj6pOSMf_bTM--11" value="" style="endArrow=classic;html=1;rounded=0;exitX=0.5;exitY=1;exitDx=0;exitDy=0;entryX=0.5;entryY=0;entryDx=0;entryDy=0;" edge="1" parent="1" source="FJEBCn0wj6pOSMf_bTM--6" target="FJEBCn0wj6pOSMf_bTM--10">
          <mxGeometry width="50" height="50" relative="1" as="geometry">
            <mxPoint x="390" y="360" as="sourcePoint" />
            <mxPoint x="440" y="310" as="targetPoint" />
          </mxGeometry>
        </mxCell>
        <mxCell id="FJEBCn0wj6pOSMf_bTM--13" value="Coming" style="text;html=1;strokeColor=none;fillColor=none;align=center;verticalAlign=middle;whiteSpace=wrap;rounded=0;" vertex="1" parent="1">
          <mxGeometry x="80" y="70" width="60" height="30" as="geometry" />
        </mxCell>
        <mxCell id="FJEBCn0wj6pOSMf_bTM--14" value="" style="rounded=0;whiteSpace=wrap;html=1;fillColor=#fff2cc;strokeColor=#d6b656;" vertex="1" parent="1">
          <mxGeometry x="120" y="170" width="100" height="110" as="geometry" />
        </mxCell>
        <mxCell id="FJEBCn0wj6pOSMf_bTM--15" value="General" style="text;html=1;strokeColor=none;fillColor=none;align=center;verticalAlign=middle;whiteSpace=wrap;rounded=0;" vertex="1" parent="1">
          <mxGeometry x="120" y="170" width="60" height="30" as="geometry" />
        </mxCell>
        <mxCell id="FJEBCn0wj6pOSMf_bTM--16" value="Linux boot time" style="rounded=0;whiteSpace=wrap;html=1;" vertex="1" parent="1">
          <mxGeometry x="130" y="240" width="80" height="30" as="geometry" />
        </mxCell>
        <mxCell id="FJEBCn0wj6pOSMf_bTM--17" value="Mac boot time" style="rounded=0;whiteSpace=wrap;html=1;" vertex="1" parent="1">
          <mxGeometry x="130" y="200" width="80" height="30" as="geometry" />
        </mxCell>
        <mxCell id="FJEBCn0wj6pOSMf_bTM--18" value="" style="rounded=0;whiteSpace=wrap;html=1;fillColor=#ffe6cc;strokeColor=#d79b00;" vertex="1" parent="1">
          <mxGeometry x="120" y="290" width="100" height="70" as="geometry" />
        </mxCell>
        <mxCell id="FJEBCn0wj6pOSMf_bTM--19" value="Cluster" style="text;html=1;strokeColor=none;fillColor=none;align=center;verticalAlign=middle;whiteSpace=wrap;rounded=0;" vertex="1" parent="1">
          <mxGeometry x="120" y="290" width="60" height="30" as="geometry" />
        </mxCell>
        <mxCell id="FJEBCn0wj6pOSMf_bTM--21" value="Cluster level overwrite" style="rounded=0;whiteSpace=wrap;html=1;" vertex="1" parent="1">
          <mxGeometry x="130" y="320" width="80" height="30" as="geometry" />
        </mxCell>
        <mxCell id="FJEBCn0wj6pOSMf_bTM--22" value="" style="endArrow=classic;html=1;rounded=0;exitX=1;exitY=0.5;exitDx=0;exitDy=0;entryX=0;entryY=0.75;entryDx=0;entryDy=0;" edge="1" parent="1" source="FJEBCn0wj6pOSMf_bTM--21" target="FJEBCn0wj6pOSMf_bTM--6">
          <mxGeometry width="50" height="50" relative="1" as="geometry">
            <mxPoint x="390" y="360" as="sourcePoint" />
            <mxPoint x="440" y="310" as="targetPoint" />
          </mxGeometry>
        </mxCell>
        <mxCell id="FJEBCn0wj6pOSMf_bTM--23" value="" style="endArrow=classic;html=1;rounded=0;exitX=1;exitY=0.5;exitDx=0;exitDy=0;entryX=0;entryY=0.5;entryDx=0;entryDy=0;" edge="1" parent="1" source="FJEBCn0wj6pOSMf_bTM--16" target="FJEBCn0wj6pOSMf_bTM--6">
          <mxGeometry width="50" height="50" relative="1" as="geometry">
            <mxPoint x="390" y="360" as="sourcePoint" />
            <mxPoint x="440" y="310" as="targetPoint" />
          </mxGeometry>
        </mxCell>
        <mxCell id="FJEBCn0wj6pOSMf_bTM--24" value="" style="endArrow=classic;html=1;rounded=0;entryX=0.008;entryY=0.383;entryDx=0;entryDy=0;entryPerimeter=0;" edge="1" parent="1" target="FJEBCn0wj6pOSMf_bTM--6">
          <mxGeometry width="50" height="50" relative="1" as="geometry">
            <mxPoint x="210" y="210" as="sourcePoint" />
            <mxPoint x="440" y="310" as="targetPoint" />
          </mxGeometry>
        </mxCell>
      </root>
    </mxGraphModel>
  </diagram>
</mxfile>
